<svg xmlns="http://www.w3.org/2000/svg" xmlns:xlink="http://www.w3.org/1999/xlink" width="1000pt" height="1000pt" version="1.1" viewBox="0 0 1000 1000"><g id="surface0"><path style="stroke-width:2;stroke-linecap:butt;stroke-linejoin:miter;stroke:#fff;stroke-opacity:1;stroke-miterlimit:10;fill-rule:nonzero;fill:#fff;fill-opacity:1" d="M 188 910 L 188 769 C 188 704 218 578 339 528 L 339 525 C 316 497 303 461 303 423 C 303 375 324 324 379 285 L 379 283 C 373 273 364 250 364 231 C 364 170 401 105 500 105 C 599 105 636 170 636 231 C 636 250 627 273 621 283 L 621 285 C 676 324 697 375 697 423 C 697 461 684 497 661 525 L 661 528 C 782 578 812 704 812 769 L 812 910 L 188 910"/><path style="stroke:none;fill-rule:nonzero;fill:#000;fill-opacity:1" d="M 188 910 L 188 769 C 188 704 218 578 339 528 L 339 525 C 316 497 303 461 303 423 C 303 375 324 324 379 285 L 379 283 C 373 273 364 250 364 231 C 364 170 401 105 500 105 C 599 105 636 170 636 231 C 636 250 627 273 621 283 L 621 285 C 676 324 697 375 697 423 C 697 461 684 497 661 525 L 661 528 C 782 578 812 704 812 769 L 812 910 L 188 910"/></g></svg>